<svg version="1.1" viewBox="0.0 0.0 720.0 540.0" fill="none" stroke="none" stroke-linecap="square" stroke-miterlimit="10" xmlns:xlink="http://www.w3.org/1999/xlink" xmlns="http://www.w3.org/2000/svg"><clipPath id="p.0"><path d="m0 0l720.0 0l0 540.0l-720.0 0l0 -540.0z" clip-rule="nonzero"/></clipPath><g clip-path="url(#p.0)"><path fill="#000000" fill-opacity="0.0" d="m0 0l720.0 0l0 540.0l-720.0 0z" fill-rule="evenodd"/><path fill="#000000" fill-opacity="0.0" d="m16.0 92.0l0 0c0 -41.97364 34.02636 -76.0 76.0 -76.0l38.0 0l0 0l171.0 0l323.0 0c20.156433 0 39.487366 8.00712 53.740112 22.259884c14.252747 14.252766 22.259888 33.58366 22.259888 53.740116l0 190.0l0 0l0 114.0l0 0c0 41.973633 -34.026367 76.0 -76.0 76.0l-323.0 0l-85.49773 57.0l-85.50227 -57.0l-38.0 0c-41.97364 0 -76.0 -34.026367 -76.0 -76.0l0 0l0 -114.0l0 0z" fill-rule="evenodd"/><path stroke="#00ffff" stroke-width="8.0" stroke-linejoin="round" stroke-linecap="butt" d="m16.0 92.0l0 0c0 -41.97364 34.02636 -76.0 76.0 -76.0l38.0 0l0 0l171.0 0l323.0 0c20.156433 0 39.487366 8.00712 53.740112 22.259884c14.252747 14.252766 22.259888 33.58366 22.259888 53.740116l0 190.0l0 0l0 114.0l0 0c0 41.973633 -34.026367 76.0 -76.0 76.0l-323.0 0l-85.49773 57.0l-85.50227 -57.0l-38.0 0c-41.97364 0 -76.0 -34.026367 -76.0 -76.0l0 0l0 -114.0l0 0z" fill-rule="evenodd"/></g></svg>